#N canvas 0 22 614 589 10;
#X msg 179 182 0;
#X msg 152 182 1;
#X msg 238 333 1;
#X obj 238 239 counter;
#X obj 176 387 &&;
#X msg 272 333 0;
#X obj 241 191 gate;
#X obj 205 364 f;
#X obj 171 314 t b b;
#X obj 241 270 > 2;
#X obj 241 308 sel 1 0;
#X obj 209 436 gate;
#X obj 209 478 outlet;
#X text 313 116 65 = 'A' is to start listening;
#X text 313 133 66 = 'B' is to stop;
#X obj 227 60 inlet;
#X obj 342 456 outlet;
#X obj 145 276 f;
#X obj 228 121 t f f f f;
#X text 326 473 send bang when new group is starting;
#X obj 157 155 sel \$1 \$2;
#X text 44 536 by Jiffer Harriman;
#X text 43 550 Creative Commons Open Source;
#X connect 0 0 17 0;
#X connect 0 0 6 0;
#X connect 1 0 17 0;
#X connect 1 0 6 0;
#X connect 2 0 7 1;
#X connect 3 0 9 0;
#X connect 4 0 11 0;
#X connect 5 0 7 1;
#X connect 6 0 3 0;
#X connect 7 0 4 1;
#X connect 8 0 4 0;
#X connect 8 1 7 0;
#X connect 9 0 10 0;
#X connect 10 0 2 0;
#X connect 10 1 5 0;
#X connect 11 0 12 0;
#X connect 15 0 18 0;
#X connect 17 0 4 0;
#X connect 18 0 11 1;
#X connect 18 1 8 0;
#X connect 18 2 6 1;
#X connect 18 3 20 0;
#X connect 20 0 1 0;
#X connect 20 0 16 0;
#X connect 20 1 0 0;
#X connect 20 1 3 2;
