#N canvas 423 216 765 502 10;
#X msg 75 112 close;
#X msg 57 61 devices;
#X msg 74 85 open 4;
#X text 121 84 <- open the port where your Arduino is connected \,
mine is 4;
#X text 116 60 <- click to list the devices available;
#X obj 166 211 route open;
#X obj 76 140 r toArduino;
#X obj 224 399 f;
#X obj 310 399 f;
#X obj 385 397 f;
#X obj 166 265 tgl 15 0 empty empty empty 17 7 0 10 -262144 -1 -1 0
1;
#X floatatom 239 345 5 0 0 0 - - -;
#X floatatom 325 343 5 0 0 0 - - -;
#X floatatom 400 343 5 0 0 0 - - -;
#X obj 224 431 s toArduino;
#X obj 239 366 clip 0 255;
#X obj 325 362 clip 0 255;
#X obj 400 362 clip 0 255;
#X obj 73 191 comport 4 115200;
#X obj 167 287 metro 30;
#X obj 167 370 t b b b;
#N canvas 842 389 450 300 reportInfo 0;
#X msg 75 95 info;
#X obj 74 75 metro 1000;
#X obj 74 35 loadbang;
#X obj 74 56 tgl 15 0 empty empty empty 17 7 0 10 -262144 -1 -1 1 1
;
#X obj 75 121 outlet;
#X connect 0 0 4 0;
#X connect 1 0 0 0;
#X connect 2 0 3 0;
#X connect 3 0 1 0;
#X restore 87 169 pd reportInfo;
#X text 170 169 <- keeps track of if its connected;
#X text 191 265 <- only send data when connected;
#X text 226 286 <- send every 30 ms;
#X text 469 360 <- limits range to 0-255 (think PWM output);
#X text 302 431 <- this goes into the comport object;
#X text 320 447 above (via [r toArduino]);
#X text 150 138 <- route data to comport;
#X text 235 321 out 0;
#X text 320 319 out 1;
#X text 396 324 out 2;
#X text 79 338 this determines the;
#X text 79 351 order they are sent;
#X connect 0 0 18 0;
#X connect 1 0 18 0;
#X connect 2 0 18 0;
#X connect 5 0 10 0;
#X connect 6 0 18 0;
#X connect 7 0 14 0;
#X connect 8 0 14 0;
#X connect 9 0 14 0;
#X connect 10 0 19 0;
#X connect 11 0 15 0;
#X connect 12 0 16 0;
#X connect 13 0 17 0;
#X connect 15 0 7 1;
#X connect 16 0 8 1;
#X connect 17 0 9 1;
#X connect 18 1 5 0;
#X connect 19 0 20 0;
#X connect 20 0 9 0;
#X connect 20 1 8 0;
#X connect 20 2 7 0;
