#N canvas 233 22 858 436 10;
#X msg 85 122 close;
#X msg 67 71 devices;
#X msg 84 95 open 4;
#X text 131 94 <- open the port where your Arduino is connected \,
mine is 4;
#X text 126 70 <- click to list the devices available;
#X obj 86 150 r toArduino;
#X obj 83 201 comport 4 115200;
#N canvas 842 389 450 300 reportInfo 0;
#X msg 75 95 info;
#X obj 74 75 metro 1000;
#X obj 74 35 loadbang;
#X obj 74 56 tgl 15 0 empty empty empty 17 7 0 10 -262144 -1 -1 1 1
;
#X obj 75 121 outlet;
#X connect 0 0 4 0;
#X connect 1 0 0 0;
#X connect 2 0 3 0;
#X connect 3 0 1 0;
#X restore 97 179 pd reportInfo;
#X text 180 179 <- keeps track of if its connected;
#X text 160 148 <- route data to comport;
#X floatatom 534 54 5 0 0 0 - - -;
#X obj 537 148 t f b;
#X obj 537 127 clip 0 255;
#X obj 536 101 change;
#X obj 534 78 resample 30;
#X floatatom 635 53 5 0 0 0 - - -;
#X obj 638 146 t f b;
#X obj 638 125 clip 0 255;
#X obj 637 99 change;
#X obj 635 76 resample 30;
#X text 725 81 <- slow it down;
#X obj 563 212 s toArduino;
#X text 532 19 OUTPUTS:;
#X text 702 170 <- output #;
#X msg 665 173 1;
#X msg 564 175 0;
#X connect 0 0 6 0;
#X connect 1 0 6 0;
#X connect 2 0 6 0;
#X connect 5 0 6 0;
#X connect 10 0 14 0;
#X connect 11 0 21 0;
#X connect 11 1 25 0;
#X connect 12 0 11 0;
#X connect 13 0 12 0;
#X connect 14 0 13 0;
#X connect 15 0 19 0;
#X connect 16 0 21 0;
#X connect 16 1 24 0;
#X connect 17 0 16 0;
#X connect 18 0 17 0;
#X connect 19 0 18 0;
#X connect 24 0 21 0;
#X connect 25 0 21 0;
